<?xml version="1.0" standalone="no"?>
<!DOCTYPE svg PUBLIC "-//W3C//DTD SVG 1.1//EN" "http://www.w3.org/Graphics/SVG/1.1/DTD/svg11.dtd" >
<svg xmlns="http://www.w3.org/2000/svg">
<metadata></metadata>
<defs>
<font id="carbontyperegular" horiz-adv-x="1491" >
<font-face units-per-em="2048" ascent="1638" descent="-410" />
<missing-glyph horiz-adv-x="1502" />
<glyph horiz-adv-x="0" />
<glyph unicode="&#xd;" horiz-adv-x="390" />
<glyph unicode=" "  horiz-adv-x="1502" />
<glyph unicode="&#x09;" horiz-adv-x="1502" />
<glyph unicode="&#xa0;" horiz-adv-x="1502" />
<glyph unicode="!" d="M325 307q103 -626 414 0q-131 150 -252 150q-113 -61 -162 -150zM325 1267l54 -57l-18 -37v-57v-132l54 -18q-18 -236 54 -415q113 80 180 151q-18 198 0 320l-36 19v113q13 19 0 37q59 151 54 264q-99 108 -216 113q-72 -80 -126 -113q13 -108 0 -188z" />
<glyph unicode="&#x22;" d="M436 1395q24 -44 12 -83q44 -122 36 -226l11 -47q60 -18 107 -12q0 122 -12 202l36 59q-6 119 12 202q-39 95 -107 119l-83 -24q9 -113 -12 -190zM828 1348h36q18 -158 0 -262q62 -127 142 12l-23 12q-18 158 71 261q3 164 -119 238q-68 -21 -107 -48v-59q-3 -92 0 -154z " />
<glyph unicode="#" horiz-adv-x="636" />
<glyph unicode="$" horiz-adv-x="1488" d="M140 496q63 -149 188 -204q-19 -172 16 -298q169 35 188 235q12 -321 236 -204q8 118 0 204q98 67 141 142q177 302 -173 486q12 28 32 32q-24 90 0 172v173q118 -31 204 32q-82 117 -204 109q55 208 -173 173h-16h16h-16q4 -90 -31 -173v-62q181 -59 94 -424 q-66 -16 -94 -63q173 -106 63 -267q78 -82 -16 -157q-12 -125 -125 -94q-51 110 15 188q-70 16 -47 79q-228 -353 -188 -63zM171 999q87 -98 173 -142q-12 -157 78 -251q16 20 32 16q-20 122 47 204l-31 63v63v125v47q19 251 0 424h-126q12 -110 0 -188q-287 -40 -173 -361z M265 1203l63 -16q-43 -102 -63 16zM721 434l31 15q-51 122 16 220q153 -59 31 -173l16 -62h-94z" />
<glyph unicode="%" horiz-adv-x="636" />
<glyph unicode="&#x26;" horiz-adv-x="1488" d="M269 670q-154 -459 126 -594q135 -181 396 -18v90q-734 4 -234 594q108 -315 360 -450q-63 -81 -126 -126q108 0 198 36q99 -257 342 -180v90q-306 22 -252 198q-99 162 252 216q32 94 18 180q-315 72 -342 -324l-72 -54q-135 130 -180 270q-95 72 -126 162q58 40 108 36 q490 630 -270 702q-41 -54 -108 -54l-54 -126q-104 -333 162 -468v-72q-104 -90 -198 -108zM503 1246l72 36q117 -27 198 -72l18 -180q-414 -329 -288 216z" />
<glyph unicode="'" horiz-adv-x="1595" d="M657 1371q89 -103 71 -261l-23 -12q80 -139 142 -12q-18 104 0 262h36q3 62 0 154v59q-39 27 -107 48q-122 -74 -119 -238z" />
<glyph unicode="(" d="M663 1056q-183 -579 201 -942l29 -108q107 -23 172 16l14 92q-291 220 -301 556q-94 467 287 818q-47 96 -129 108l-87 -123l-14 -31l-172 -216q-14 -101 0 -170z" />
<glyph unicode=")" d="M465 143q3 -126 109 -148q72 -4 110 0q24 89 96 103q-4 119 13 208q69 26 96 74v45l14 44v59l27 30q-3 108 27 178l-13 89l27 74l-27 119q-45 137 -55 237l-41 15v44q-17 15 -14 30q-41 78 -95 119q-18 77 -55 133h-151q-24 -104 -27 -178q215 -96 219 -326 q106 -63 55 -193q99 -63 41 -178q23 -100 -55 -148q-45 -315 -301 -430z" />
<glyph unicode="*" d="M467 1422l37 -62q195 -28 -12 -124l-13 -87q121 -15 211 25q-34 -96 50 -136h49q22 77 62 124q115 -37 186 37q-139 118 0 235q-87 71 -198 25q-19 81 12 149q-87 21 -149 12l-37 -62q22 -31 0 -62q-127 9 -198 -74z" />
<glyph unicode="+" horiz-adv-x="636" />
<glyph unicode="," d="M524 326l10 -77q142 -99 48 -193v-77q36 -12 48 -39h29q41 75 107 77q118 331 -49 464h-19h19h-19q-118 -58 -174 -155z" />
<glyph unicode="-" d="M373 563q-14 42 8.5 107.5t86.5 73.5q30 3 67 -5q82 -16 177 -7t239.5 23.5t158.5 -20t-138 -174.5q-31 -4 -73 4t-184 3q-302 10 -205 -7z" />
<glyph unicode="." d="M306 175q81 -217 301 -193v36q226 187 73 434h-36q-73 15 -133 12q-136 -102 -157 -241z" />
<glyph unicode="/" d="M59 -7l26 -52l156 65v104q68 81 65 182h-52l-65 -39l-13 -39zM306 409q42 -114 104 -13q29 68 -26 104q-56 -49 -78 -91zM410 526l91 13l-13 52l39 39q84 74 77 168l117 91q56 72 52 143h39q75 111 169 169q29 88 78 143q-6 101 -26 169q-65 3 -104 13l-26 -52l-39 -13 q-32 -117 -91 -195q-45 -162 -156 -260l-26 -78q-22 -74 -13 -143q-90 -61 -77 -168q-88 -13 -91 -91z" />
<glyph unicode="0" horiz-adv-x="1515" d="M202 419l90 -18q17 -65 -54 -54v-72l125 -36q-53 -88 180 -251h144h125h54q37 166 216 144l18 89l17 18l54 36l-18 108q114 177 90 359l54 18v54q-20 27 -18 54v54q-55 106 -54 197q-109 144 -125 269q-130 17 -198 90q-96 -6 -179 18q-135 -37 -234 -36 q-437 -472 -287 -1041zM274 437l36 54q-71 268 53 413q5 226 198 305q382 26 449 -305q27 -17 54 0q63 -361 -126 -629q-140 -126 -287 -36q-47 -75 -90 0q-137 0 -144 144q-87 13 -143 54z" />
<glyph unicode="1" horiz-adv-x="1498" d="M59 1267q18 -27 18 -53l123 -18q149 18 263 0l18 -70l-18 -70q9 -132 0 -211v-53l35 -105q-17 -84 -17 -141q22 -167 0 -281q-132 -52 -281 0q-105 -92 -123 -193q250 -123 474 -53q325 -74 562 53q18 88 0 158q-171 -9 -298 35l-106 -35l-17 70q4 49 0 71v193v193l17 70 v53v70l35 36q0 87 18 140q-26 141 0 264q-220 118 -404 105q-321 18 -299 -228z" />
<glyph unicode="2" horiz-adv-x="1515" d="M58 77q277 -125 606 -86l34 52q221 -70 398 34q-30 108 -86 173q-368 -99 -692 -34q60 225 259 259q160 152 363 139q22 73 87 86q212 619 -485 796l-17 -35q-220 -69 -363 -155q4 -121 -35 -208q108 -65 208 -69q143 143 329 86q69 83 121 -17q138 -35 17 -277 q-368 -39 -606 -277l-17 -52q-17 -30 -35 -34l-34 -121q0 -156 -52 -260z" />
<glyph unicode="3" horiz-adv-x="1515" d="M54 57l72 -73q77 11 131 44h146l29 58q254 76 363 276q266 214 44 596q-109 11 -175 58q418 396 29 422l-72 58l-29 -44h-88q-32 -11 -58 0l-334 -29l-29 -58q25 -167 465 -160q-120 -178 -262 -247v-160l88 -58q189 91 378 73v-58q80 -44 0 -233l-73 -15 q-142 -229 -393 -247q-83 -62 -189 -58q-47 -65 -43 -145z" />
<glyph unicode="4" horiz-adv-x="1468" d="M6 372h45l45 -14h45l45 -15q206 29 344 15q15 18 30 14q-116 -396 165 -374q8 131 75 225q-180 198 150 149l15 180q-71 94 -180 60v45q-45 169 -30 300q-67 52 -105 105q-209 -135 -75 -450q-168 -11 -269 0l-15 60q11 53 45 90q0 135 60 240v164q26 139 15 240 q-87 71 -180 90l-60 -75l-15 -45q19 -15 15 -30v-45q-11 -161 0 -269v-45l-45 -105l-15 -90l-30 -15q-26 -131 -75 -210q4 -120 0 -195z" />
<glyph unicode="5" horiz-adv-x="1513" d="M52 138q-8 -145 119 -164q119 104 254 119q280 109 403 344q41 123 119 194l-45 74q64 414 -552 343q-26 265 537 224q64 157 -74 224q-8 -30 -30 -30h-105l-89 -15q-239 19 -403 0q-15 -156 -60 -253q56 -101 0 -179q60 -75 30 -150l75 -59h104q280 227 508 -75 q-79 -119 -45 -239l-135 -45q-227 -257 -537 -253z" />
<glyph unicode="6" horiz-adv-x="1515" d="M126 464q53 7 107 0q58 80 61 169q70 -16 108 -46q88 138 230 61q284 -58 231 -384q-354 -307 -676 169q-123 -165 61 -276q58 -211 307 -108l62 -61q111 100 230 107q-8 89 62 123q7 104 61 169q-92 618 -691 384q42 111 138 169v122l62 -15q80 226 307 230 q57 50 123 62q-8 184 -200 153q-54 -42 -108 -31q-103 -107 -230 -138q-65 -169 -184 -261l-15 -122q-81 -250 -46 -476z" />
<glyph unicode="7" horiz-adv-x="1515" d="M43 1005l61 -31l77 16q50 353 384 307q230 23 215 -215q-88 -92 -108 -200q-452 -383 -337 -905h92q15 173 77 276q-58 54 -62 123q177 153 184 337l108 31q61 180 169 292q0 180 61 322q-54 61 -61 123h-62h-46q-92 19 -169 15h-46h-46h-46h-169h-153 q-127 -211 -92 -414q-27 -39 -31 -77z" />
<glyph unicode="8" horiz-adv-x="1506" d="M48 369q54 -62 93 -93q-112 -108 46 -139v-77q104 -8 154 -77l139 31l-15 108q-120 35 -232 15v93q-227 147 62 510h139q139 -24 231 -16l16 -108q181 -104 62 -185q77 -186 -186 -309v-46q93 -24 170 -16q367 425 -62 757q66 42 124 61q-27 51 -31 93q147 108 62 247 q-81 301 -386 278q-317 -93 -309 -494q112 -62 108 -170l62 46v-92q-232 -158 -247 -417zM202 1095q66 185 216 216l16 46q262 -50 200 -201q70 -65 -15 -108q19 -38 46 -15q-38 -89 -92 -139q-151 -73 -216 77q-116 0 -108 108z" />
<glyph unicode="9" horiz-adv-x="1515" d="M103 863q101 -86 135 -195q320 -76 557 45l46 -75q-166 -403 -543 -467q-75 -83 -60 -181q429 49 557 422q162 120 121 301l30 -15q83 245 -30 422q-8 350 -407 376q-467 -166 -406 -633zM253 954q-19 245 166 316q90 -7 166 0q52 -79 150 -75q234 -520 -361 -407 q-57 106 -121 166z" />
<glyph unicode=":" horiz-adv-x="1403" d="M57 529q64 -371 366 -421q68 151 201 201q-32 110 0 238q-174 137 -329 147q-101 -138 -238 -165zM130 1005q110 -101 165 -202q91 42 146 55l128 55q5 101 55 165q-50 100 -55 219q-151 78 -311 55q-155 -155 -128 -347z" />
<glyph unicode=";" d="M466 1051q59 -56 63 -127l48 -15h47q146 31 253 15l16 111q63 122 47 237q-103 146 -253 142q-79 -87 -174 -111q-15 -150 -47 -252zM577 40q114 8 189 32q372 612 -63 789q-407 -308 -95 -489q-55 -182 -31 -332z" />
<glyph unicode="&#x3c;" horiz-adv-x="636" />
<glyph unicode="=" horiz-adv-x="636" />
<glyph unicode="&#x3e;" horiz-adv-x="636" />
<glyph unicode="?" d="M57 1025q379 -218 379 246h57q113 31 208 38q96 -45 113 -133q290 -61 -303 -454v-209q91 -19 152 -19q54 141 57 247q503 137 322 606q-154 44 -228 151h-208q-73 -23 -151 -19q-91 -78 -190 -76v-56q-162 -146 -208 -322zM474 362q-230 -354 189 -360q171 90 151 284 q-181 94 -340 76z" />
<glyph unicode="@" horiz-adv-x="579" />
<glyph unicode="A" horiz-adv-x="1498" d="M18 109q203 -91 370.5 -91t300.5 91v17q0 188 -215 188h-9l56 19h112q70 52 149 56v-56q-11 -32 -11 -60t11 -52q-37 -70 -37 -149q176 -82 315 -82q167 0 281 119q-52 202 -261 205l-37 261q-100 201 -112 392h-112q33 51 75 74q-6 67 -56 93q5 44 6 84q0 282 -267 289 q-19 -22 -37 -19q-1 -174 -75 -298q4 -27 4 -51q0 -102 -60 -172q-15 -414 -167 -708q-175 -9 -224 -150zM596 780l18 56q55 -21 120 -21q23 0 48 3q8 -22 8 -40.5t-8 -34.5q-17 -37 -29 -37q-18 0 -27 74h-130zM801 333h111q-28 -43 -55.5 -43t-55.5 43z" />
<glyph unicode="B" horiz-adv-x="1501" d="M221 84q127 -84 253 -84q112 0 224 66q179 -77 306 -77q239 0 294 271l-53 18q-101 -43 -189 -43q-38 0 -75 8q-132 -52 -248 -52q-64 0 -123 16q55 114 55 235q0 24 -2 48q-14 137 -71 229q36 26 67 26.5t57 -26.5q26 60 82 60q19 0 41 -7q27 22 36 53l-283 18 q20 62 20 115t-20 97h-18h18h-35h17h-35h18h-36h18h-18l-35 -53q20 -76 20 -147q0 -24 -2 -47q4 -41 4 -78q0 -117 -40 -205q28 -127 28 -233q0 -64 -10 -120q-48 14 -90 15q-110 -1 -175 -103zM380 1408q-169 -74 -169 -118q0 -50 222 -59q44 -101 124 -158q62 61 88 141 q84 13 124 70l53 -70q167 -5 282 -53q27 -102 35 -177l-70 -106q-19 2 -35 2q-113 0 -124 -108q13 -144 119 -144q40 0 93 21l53 -53q51 -85 51 -170q0 -47 -16 -95q68 -19 122 -19q10 0 19 1q18 66 18 125q0 175 -159 281q66 173 71 301q15 60 15 108q0 181 -210 192 l-17 70h-53h-71h-300h-53q-93 20 -166 20q-24 0 -46 -2z" />
<glyph unicode="C" horiz-adv-x="1504" d="M184 1026q-58 -172 -58 -327q0 -289 202 -517l18 -36q76 -63 108 -144q139 0 233 -18q27 18 54 18q135 4 234 36q103 148 234 215q34 92 34 161q0 158 -178 199l-36 -36q-37 -48 -37 -96q0 -6 1 -12l-162 -251q-48 -2 -93 -2q-133 0 -230 20l-18 107q-165 83 -165 255 q0 25 3 51l-36 -36q-1 23 -1 46q0 275 145 475q157 119 267 119q180 0 236 -317q103 -22 180 -72q13 113 72 198q-37 68 -37 135q0 14 1 27q54 51 54 109q0 34 -18 70q-72 72 -144 90l-72 -54q-126 19 -232 18q-510 1 -559 -431z" />
<glyph unicode="D" horiz-adv-x="1505" d="M18 1330l307 -72q-25 -123 -25 -218q0 -150 61 -233q-13 -32 -36 -36l-18 -55q4 -81 4 -154q0 -173 -22 -297q-14 1 -27 0q-226 0 -226 -210v-7l253 -36q52 8 99 8q84 0 154 -26q116 64 232 64q46 0 93 -10q49 45 108 72q41 50 90 73q28 81 91 126l-36 145q79 31 79 228 q0 59 -7 133l54 18l-18 126q-32 18 -36 36q-54 231 -163 380q-122 27 -198 90h-199h-54l-90 18h-55l-36 -18l-289 18q-72 -90 -90 -163zM469 337q28 18 37 36l-37 73l37 36v72l-18 126l-19 109q30 52 29.5 101.5t-29.5 96.5q14 43 13.5 84t-13.5 79q95 126 217 180 q163 -54 217 -198q130 -50 130 -172q0 -21 -4 -45q91 -100 91 -200q0 -90 -73 -179q19 -35 19 -61q0 -64 -109 -84q-163 -127 -335 -127q-66 0 -134 19z" />
<glyph unicode="E" horiz-adv-x="1490" d="M41 36q32 -18 37 -37q85 23 168 23t164 -23l36 37h74h148h55l129 -18q131 -29 243 -29q66 0 126 10l56 74q0 88 37 148q-10 27 18 55q-41 111 -41 211q0 33 4 65l-147 37l-111 -73q0 -74 -56 -111q25 -41 25 -74q0 -132 -394 -132q-60 0 -129 3q-18 46 -18 80q0 60 55 86 l-18 74l-37 -37q23 97 106 97q19 0 42 -5q-74 19 -93 74q104 14 192 14t159 -14q32 55 74 92q-34 105 -34 204q0 65 15 128l-147 55q-62 -153 -123 -153l-25 6q-32 -114 -144 -114q-19 0 -41 3q34 103 34 196q0 61 -15 118l18 129q128 -31 179 -31q32 0 32 13q0 20 -81 73 h129q83 -18 156.5 -18t138.5 18q4 -101 74 -147q-21 -45 -21 -79q0 -74 94 -106q42 51 93 74q12 74 12 137q0 261 -215 324q-33 -32 -74 -37l-74 19q-194 -10 -313 -37q-74 12 -138.5 12t-120.5 -12q-91 24 -167 24q-39 0 -73 -6q-32 -51 -73 -74l18 -92q61 16 114 16 q95 0 163 -53q-5 -50 -5 -99q0 -270 152 -472q-16 2 -30 2q-139 0 -139 -237q0 -94 22 -226q-49 6 -90 6q-207 0 -207 -162q0 -14 2 -29zM889 350q38 8 38 25q0 12 -19 30z" />
<glyph unicode="F" horiz-adv-x="1499" d="M71 44q112 -44 213.5 -44t194.5 44q121 -58 196 -58q125 0 124 159q0 30 -4 66h-130q-9 88 -149 111q110 41 197 41q23 0 45 -3q79 93 186 93l18 55q-12 65 -12 120.5t12 102.5q-14 74 -14 144t14 135q-102 32 -111 111q-307 5 -335 130q51 -9 56 -55h130q54 95 189 95 q63 0 145 -21q38 -65 93 -93q-4 -25 -4 -47q0 -155 171 -176q34 116 34 225q0 156 -71 295l-315 19q-165 -32 -318.5 -32.5t-294.5 32.5q-200 0 -260 -111q93 -38 148 -93q33 15 64 15q46 0 85 -34q-2 -28 -2 -54q0 -80 20 -150q-25 -140 -25 -270q0 -205 63 -381 q-56 -107 -56 -191v-13q-301 -8 -301 -136q0 -15 4 -31zM535 434q-4 68 -4 123.5t4 99.5q15 2 28 2q82 0 102 -76q91 -5 91 -29q0 -38 -221 -120zM609 954h56q-21 -56 -35 -56t-21 56zM721 898l18 38q31 -15 31 -24q0 -11 -49 -14zM739 1103q42 -28 56 -75q-56 -3 -95 -3 q-92 0 -92 16q0 20 131 62z" />
<glyph unicode="G" horiz-adv-x="1499" d="M18 865q60 -78 73 -147q-1 -17 -1 -34q0 -375 277 -590q68 -37 91 -110h55l37 18q47 -2 91 -2q135 0 239 21l92 55q91 -59 176 -59q22 0 44 4l37 91l-19 37l-18 55v55q-78 161 -92 294q151 55 151 165q0 18 -4 37h-55q-92 0 -147 18h-55q-89 -22 -161 -22q-31 0 -59 4 q-90 -37 -90 -77q0 -43 108 -89q33 8 60 8q110 0 124 -136q-138 -96 -165 -220q-94 -29 -171 -29q-188 0 -269 176q-125 132 -125 348q0 182 88 422q199 129 332 129q213 0 255 -331l110 -18l73 73q-8 47 -8 90q0 151 100 241v110q-71 33 -124 33q-76 0 -114 -70l-56 -18 q-178 99 -344 99q-49 0 -96 -8q-325 -238 -367 -587z" />
<glyph unicode="H" horiz-adv-x="1505" d="M18 53q41 -37 54 -75q44 23 75 23q57 0 69 -79q113 56 216 56v75q63 -5 90 -56l72 56q14 1 28 1q98 0 153 -57q63 13 123 13q95 0 183 -32q36 43 72 43l54 -24l18 131q-162 219 -162 449q-42 71 -42 132q0 83 78 148v150q-81 42 -90 131q113 56 204 56h12 q-18 140 -54 243q-24 -1 -46 -2q-116 0 -206 39q-144 -33 -274 -34q-163 0 -303 53q-117 -79 -233 -79l-55 4l18 -187q34 14 65.5 14t60.5 -14l36 -75l-36 -74q23 -131 54 -206l-54 -131q27 -70 36 -131q-26 -121 -26 -226q0 -58 8 -111q-180 -56 -198 -224zM360 315l72 131 q-6 33 -6 61q0 140 150 163h217q22 -93 22 -135q0 -34 -14 -33q-19 0 -62 56l-18 -112q58 -41 58 -76q0 -53 -130 -93l-37 -74q7 -19 7 -30q0 -16 -15 -16q-48 0 -244 158zM378 988q68 243 216 411q34 -29 68 -29q21 0 41 11l-36 -150q199 -170 199 -230q0 -33 -61 -34 q-14 0 -30 2q-2 -126 -95 -126q-99 0 -302 145z" />
<glyph unicode="I" horiz-adv-x="1497" d="M72 1252q119 -30 222 -30q64 0 123 12q29 -65 29 -127q0 -40 -12 -79q44 -73 44 -147q0 -56 -26 -112q49 -117 49 -233q0 -135 -67 -267q-84 18 -146 18q-175 0 -175 -145q0 -36 11 -80q39 -21 52 -51l17 34h138q66 -42 133 -42l57 8l51 51q105 -12 200 -12q153 0 283 30 v172l-138 17h-276l17 35q-6 72 -6 139q0 179 41 326q-39 140 -40 266q0 95 23 182q127 46 238 46q55 0 107 -11q34 94 34 172l-69 35h-52l-34 17q-148 -24 -281 -24q-174 0 -323 41q-226 -48 -226 -212q0 -14 2 -29z" />
<glyph unicode="J" horiz-adv-x="1490" d="M208 718q-91 -137 -91 -283q0 -160 109 -329q180 -49 288 -108q135 68 252 72q72 63 126 90v54l36 36q6 50 6 99t-6 99q27 18 36 36v72v72v54v73v324l18 144q254 39 254 153q0 44 -38 99l-36 -18l-126 18q-84 -8 -159 -8q-133 0 -237 26q-171 -27 -198 -162 q135 -92 270 -92l36 2q4 -23 4 -41t-4 -31l18 -54v-90l18 -54l-18 -54q20 -51 20 -107q0 -18 -2 -37q4 -57 4 -97.5t-4 -65.5q42 -75 42 -155q0 -30 -6 -61q-95 -121 -198 -162q-44 -6 -81 -6q-195 0 -195 171q0 79 42 195q-95 99 -180 126z" />
<glyph unicode="K" horiz-adv-x="1517" d="M299 1445q-8 -34 -8 -62q0 -145 209 -158v-91q9 -69 9 -128.5t-9 -109.5l18 -73v-33q0 -164 -18 -278l18 -275q-84 -19 -166 -19q-18 0 -35 1q-61 -81 -61 -133q0 -98 211 -98q148 0 399 48l19 36q-50 74 -55 147q-11 -1 -21 -1q-129 0 -181 92v147q48 98 55 219 q32 3 60 3q235 0 235 -233q0 -21 -2 -44q138 -31 138 -104.5t-138 -188.5l18 -92h55l74 -18q132 31 252 31q78 0 150 -13q39 89 39 169q0 17 -2 33q-68 6 -123 5.5t-97 -5.5q-179 168 -219 366q-22 18 -19 36q-101 89 -146 183q152 462 586 513q-34 170 -220 183 q-18 -21 -37 -18q-136 -2 -219 -19q-75 -74 -167 -74q-8 0 -16 1q-180 87 -363 87q-111 0 -223 -32zM610 841l73 55q-28 114 -28 215q0 60 10 114q158 84 238 147q81 -36 128 -92q-78 -250 -275 -329q4 -22 4 -41q0 -98 -113 -106q-33 13 -37 37z" />
<glyph unicode="L" horiz-adv-x="1517" d="M63 46l88 -73q44 9 85 9q92 0 162 -45l53 36l53 19l70 -19l71 19h53h70h53h53h177l158 18l71 218q14 71 14 138q0 148 -67 280q-162 -54 -162 -244q0 -69 21 -156l-88 -91q-22 -1 -43 -1q-196 0 -363 74l-18 54l18 73q-11 66 -11.5 125t11.5 111l-35 109l35 73 q-10 81 -10 157q0 161 45 297h9q238 0 238 209v9l-53 19q-87 -9 -167 -8q-182 0 -326 44q-93 -56 -186 -56l-26 1l-35 -90q33 -146 182 -146q52 0 117 18l-17 -72v-182l17 -55v-218l-17 -36l17 -55q-18 -106 -18 -201.5t18 -179.5q-180 -37 -299 -37q1 -15 1 -29 q0 -78 -19 -116z" />
<glyph unicode="M" horiz-adv-x="1520" d="M38 1363q98 -24 156 -98l-19 -97l19 -59q7 -53 7 -102q0 -95 -26 -172l39 -215q-8 -110 -8 -198t8 -154q-138 -63 -138 -189q0 -12 1 -26l137 -39l59 -20l156 39l39 -19h59l137 39q24 -3 47 -3q67 0 129 22q101 -61 196 -61q20 0 39 3q69 20 131 20q88 0 162 -40v176 l-39 20l-98 78v78q1 12 1 24q0 103 -40 191v78v59v59q48 192 48 365q0 74 -9 143q93 49 117 137q-114 39 -222 39t-208 -39l-19 -58l-20 -79l-20 -117q-9 -142 -97 -215q13 -68 13 -130q0 -99 -33 -183l-117 59l19 78q-73 230 -156 371q5 68 5 127t-5 108l-313 137 q-98 -64 -137 -137zM351 366q20 146 19.5 268.5t-19.5 220.5q49 -79 59 -157q58 -103 78 -195q112 -93 117 -313l-137 -20l-19 39zM918 229q-22 127 -22 248q0 284 120 534l39 -59v-684z" />
<glyph unicode="N" horiz-adv-x="1502" d="M73 1362q292 -8 292 -392q0 -64 -8 -139l114 19q46 80 118 80q17 0 34 -4q-6 43 -6 84q0 150 82 257q-115 64 -115 182q0 13 1 27h-57q-135 41 -245 41q-30 0 -58 -3q-153 -18 -153 -137q0 -7 1 -15zM92 53q33 -19 38 -57h57q100 12 185 12t156 -12q95 57 152 76 q-38 147 -228 190q17 98 17 188q0 189 -74 343h-19h19h-19q-36 -54 -36 -101.5t36 -88.5q-57 -54 -57 -107q0 -43 38 -83q-57 -98 -57 -195v-13q-17 1 -33 1q-94 0 -175 -20q16 -34 16 -67t-16 -66zM680 893q92 -71 124 -71q17 0 17 21q0 40 -68 159zM680 1116l38 -95 q15 26 15 46q0 37 -53 49zM775 755q57 -104 57 -228q109 15 152 95q-128 19 -133 133h-76zM851 1381q99 -47 133 -152q57 48 114 57q-48 -109 -57 -208q57 -62 94 -62q64 0 63 189q0 60 -6 138q22 -2 41 -2q138 0 139 99q0 25 -9 55h-152h-57h-246zM927 432q59 -155 59 -289 q0 -26 -2 -52q92 -46 150 -46q101 0 100 139q0 125 -80 362h-18h18h-18l-57 -38q3 -19 3 -34q0 -71 -58 -71q-37 0 -97 29zM1060 755q34 -43 34 -89q0 -31 -15 -63h94q22 68 21 125q0 94 -58 160z" />
<glyph unicode="O" horiz-adv-x="1520" d="M64 713l56 -56q-12 -58 -12 -115q0 -311 368 -560h19q713 0 713 668v7v56l37 37q-14 87 -14 162t14 138q-28 -4 -56 19l-19 112l-37 19q-24 19 -19 38l-38 18q-117 146 -206 225q-94 0 -150 19h-75q-511 -84 -581 -787zM214 825q56 164 169 225q-1 11 -1 23q0 94 38 165 q136 14 188 93q36 4 67 4q215 0 215 -189q0 -10 -1 -21l112 -19l-18 -93q78 -165 78 -321q0 -244 -191 -466l-94 -19q-487 46 -487 499v26z" />
<glyph unicode="P" horiz-adv-x="1527" d="M63 28q76 -38 143.5 -38t124.5 38q86 -46 205.5 -46t271.5 46v96l-114 38q-38 -9 -70 -9q-59 0 -102 28q29 123 29 227q0 62 -10 117q81 53 153 77q106 -28 206 -28q174 0 329 85v76q145 113 145 280q0 130 -88 294q-100 52 -153 134l-76 -19q-91 4 -172 57 q-39 -3 -76 -3q-107 0 -192 22q-114 -19 -214.5 -19t-186.5 19l-153 -96q72 -62 96 -133q133 0 229 -20q13 -57 13 -111q0 -84 -32 -156q16 -46 16.5 -89t-16.5 -83q46 -106 46 -202q0 -74 -27 -142q22 -38 22 -68q0 -41 -41 -66q23 -57 23 -109q0 -22 -4 -44q-34 4 -65 4 q-194 0 -260 -157zM522 735l19 134v134q32 94 32 180q0 55 -13 107q76 4 115 57l133 -38q77 25 144 25q34 0 66 -6l58 -134q8 1 15 1q117 0 116 -143q0 -79 -36 -202q-118 -151 -274 -151q-52 0 -108 17q-49 -70 -111 -70q-70 0 -156 89z" />
<glyph unicode="Q" horiz-adv-x="1543" d="M74 636q124 -578 682 -678q20 -314 330 -339l104 -20q167 215 167 446q0 27 -2 53l-41 20q-99 55 -186 79q20 180 165 240q-5 120 -62 199q34 133 34 254q0 396 -365 664h-144l-42 100l-20 -100q-43 9 -80 9q-129 0 -189 -109q-160 -24 -165 -159l-104 -20l-20 -60v-80 l-21 -119q-13 -48 -13 -88t13 -72q-43 -95 -43 -183q0 -19 2 -37zM342 756q-38 95 -38 184.5t38 174.5q-7 26 -7 44q0 46 42 46q19 0 48 -10l21 160q134 -30 227 -100q53 8 98 8q281 0 281 -305q0 -48 -7 -102q7 -71 7 -130q0 -271 -142 -271q-40 0 -92 22l-83 100 q-196 -5 -331 -100l21 80q-122 6 -122 86q0 45 39 113zM549 237l83 60q116 -73 116 -94q0 -9 -19 -9q-42 0 -180 43zM632 1395l82 -20q-23 -53 -43 -53q-22 0 -39 73zM1066 158l62 -20q-48 -58 -65 -58q-9 0 -9 17q0 19 12 61z" />
<glyph unicode="R" horiz-adv-x="1520" d="M52 169q4 -134 284 -134q34 0 71 2q74 -18 139.5 -18.5t121.5 18.5q-5 151 -159 151q-13 0 -28 -1q-42 82 -42 157t42 143l-130 113q6 -55 6 -104q0 -327 -297 -327h-8zM108 1425q61 -89 205 -113q3 -16 3 -30q0 -39 -21 -63q38 -172 38 -291q0 -14 -1 -28l56 -19 q-37 -108 -37 -187q107 -29 168 -57q42 6 80 6q369 0 369 -557q0 -24 -1 -49q115 -59 215 -59q84 0 158 41q-13 207 -200 207q-12 0 -24 -1q2 24 2 47q0 204 -151 309q121 150 280 206q32 99 74 150q-84 514 -498 513q-47 0 -99 -6l-75 56l-37 -38h-56q-93 0 -149 19 q-178 -47 -299 -56zM444 919q-3 38 -3 74q0 212 115 357q84 -14 149 -38q86 23 161 23q32 0 63 -4q66 -108 168 -131q1 -18 1 -35q0 -440 -376 -441q-91 0 -203 26q-20 -3 -37 -3q-69 0 -69 61q0 42 31 111z" />
<glyph unicode="S" horiz-adv-x="1523" d="M63 47q29 -4 56 -4q64 0 114 23q-41 6 -41 37q0 23 22 58h94q177 -154 359 -154q158 0 321 116q50 -7 87.5 -7t63.5 7q14 94 75 151v56v57q-61 141 -75 245q-151 57 -246 151q-104 5 -188 38q-151 9 -189 132q-47 -25 -99 -25q-26 0 -52 6q-10 30 -9.5 58.5t9.5 54.5 q-32 27 -32 53q0 39 70 79q47 160 196 160q63 0 143 -28q72 -286 277 -286q21 0 44 3v20q0 161 76 263q-85 137 -208 189l-76 -57q-142 39 -256 38q-349 0 -442 -358q2 -50 2.5 -87.5t-2.5 -63.5q79 -67 79 -153q0 -17 -3 -36l151 -56l19 37l56 -56q38 3 74 3q217 0 379 -98 q15 -74 15 -143q0 -103 -34 -196q-167 -95 -326 -95h-13q-175 260 -416 359q-9 -43 -37 -57l37 -19z" />
<glyph unicode="T" horiz-adv-x="1517" d="M116 1442q22 -97 22 -177q0 -28 -3 -54l174 19v12q0 133 83 133q23 0 52 -10q31 -5 59.5 -5t55.5 5v-13q0 -135 97 -199q-15 -116 -58 -193q48 -132 48 -248t-48 -215l38 -308q-72 -16 -135 -16q-95 0 -173 35q-59 -79 -59 -167q0 -13 1 -26l77 -19h77q155 5 270 58 q123 -54 240 -54q94 0 184 35q2 13 2 25q0 139 -201 140q-56 0 -128 -11l19 58q-58 193 -58 372q0 147 39 283l96 -77v154q-56 -26 -95 -26q-82 0 -82 119q0 63 23 158l77 -58q149 58 289 58q15 -57 15 -109q0 -98 -53 -180q57 -92 77 -174q161 34 161 255q0 89 -26 208 q72 29 96 77q-130 68 -174 193q-164 -41 -293.5 -41t-226.5 41q-108 -26 -204.5 -26t-181.5 26q-96 -58 -173 -58zM135 1191q-23 -177 -23 -266q0 -88 23 -87q25 0 77 103q42 -13 73 -13q71 0 81 71q-154 82 -231 192z" />
<glyph unicode="U" horiz-adv-x="1501" d="M48 1338q139 -14 223 -74l-19 -93v-149q7 -37 7 -73q0 -68 -25 -131l37 -93l-19 -74q16 -86 16 -165t-16 -150l19 -112q75 -52 93 -130h55l56 -18q127 -70 241 -93q149 51 223 148q46 -16 88 -16.5t79 16.5l-37 260l18 56v93v74v93q-6 36 -6 71q0 71 25 133 q-20 87 -20 157q0 15 1 29q-1 234 223 260q-15 148 -298 148q-102 0 -240 -19l-56 -74q40 -120 149 -148q16 -86 16 -160t-16 -137q19 -130 55 -204l-37 -56q10 -51 10 -94q0 -74 -28 -129q6 -59 6 -110t-6 -94l-130 -130q-338 27 -338 616q0 205 41 479q179 80 204 223 l-37 18h-56h-56l-55 19q-64 -12 -119.5 -11.5t-103.5 11.5q-114 -24 -167 -74v-93z" />
<glyph unicode="V" horiz-adv-x="1503" d="M48 1420q9 -190 195 -194q0 -151 106 -213q0 -128 -18 -212l53 -35l18 -124l18 -124q35 -9 35 -36q24 -65 24 -129q0 -32 -6 -65q71 -133 88 -266l71 -35q128 62 195 159v71l18 124l53 71q8 314 141 566q-2 23 -1 44q0 108 37 186q59 22 114 22q23 0 45 -4l53 177 q-114 99 -268 100q-141 0 -316 -83v-106q130 -112 130 -239q0 -97 -77 -203q15 -88 15 -160q0 -204 -121 -283q21 -64 21 -124q0 -27 -4 -53q-90 105 -90 215q0 51 20 104q-58 74 -58 160q0 26 5 52q-111 93 -111 216q0 24 4 50q-26 61 -26 107q0 106 133 140v142l-142 53 l-18 -35q-199 0 -336 -36z" />
<glyph unicode="W" horiz-adv-x="1494" d="M23 1349q135 -116 204 -204l-18 -75v-92l37 -75v-92l-19 -56v-56q23 -18 19 -37v-74q14 -33 37 -37v-260l18 -37q-7 -60 -7 -111t7 -93q86 -48 147 -48q154 0 155 304q0 53 -5 115l75 56v10q0 116 111 138q72 -125 72 -242q0 -56 -16 -110q74 -116 74 -242 q72 -46 137 -46t123 46q-3 50 -3 99q0 282 95 495l-55 37q9 598 241 649l-19 112q-181 0 -315 74l-111 -74l-19 -74q136 -62 136 -355q0 -126 -25 -295q-83 -9 -111 -74q-85 106 -85 206q0 36 11 72h-93q32 33 74 37q-111 93 -204 149q-37 -88 -148 -93q40 -81 39.5 -155.5 t-39.5 -141.5l-149 -18q-4 33 -4 63q0 92 41 159q-102 126 -148 223q74 70 74 156v11q82 32 82 102q0 21 -8 46q-199 0 -334 56zM450 569l18 37q52 -8 52 -17q0 -10 -70 -20zM691 829l56 -74l37 74l18 -130q-20 -3 -37 -3q-83 0 -84 75q1 25 10 58z" />
<glyph unicode="X" horiz-adv-x="1500" d="M34 92q184 -86 356 -86q131 0 256 50v90q-90 41 -90 119q0 110 179 295q139 -116 139 -221q0 -82 -85 -157v-144q178 -44 299 -44q227 0 259 152q-69 114 -181 114q-26 0 -53 -6v54q-108 68 -162 162q-18 126 -144 126l54 18q-47 47 -47 92t47 88q9 166 144 233 q47 235 247 235q11 0 23 -1l36 54q-49 122 -108 198q-83 -14 -155 -13.5t-133 13.5h-18h18h-36h18h-36h18h-36h18h-18l-54 -90q58 -124 58.5 -195.5t-58.5 -92.5q9 -46 9 -77q0 -63 -38 -63q-18 0 -43 14q5 -20 5 -36q0 -54 -58 -71l18 125q-144 108 -180 234q63 63 126 72 l-18 36l-36 108h-72l-36 18q-162 -40 -294 -41q-44 0 -84 5q27 -117 72 -198q69 26 131 26q35 0 67 -8v-72q153 -162 198 -323q99 -5 161 -54l-35 -54l-162 -144q-23 -117 -108 -162q-23 -130 -72 -216q-216 -9 -306 -162z" />
<glyph unicode="Y" horiz-adv-x="1499" d="M49 1278q27 -48 35 -87q51 13 98 13q89 0 164 -48l17 -244q123 -81 123 -208q0 -9 -1 -18q102 -95 102 -300q0 -78 -15 -171q-115 56 -193 56q-144 0 -155 -196q52 -30 69 -69l53 17q166 -29 305 -29q89 0 166 12l69 52q88 -17 157 -17q13 74 70 87q-107 153 -265 153 q-48 0 -101 -14q9 493 261 854l18 122q49 -7 93 -7q83 0 151 25q-18 78 -18 144q0 16 1 30q-127 44 -210 53l-17 -35h-52l-53 17q-146 -24 -283 -24q-217 0 -414 59q-178 -46 -178 -189q0 -18 3 -38zM485 1156q131 61 175 140q161 -53 161 -166q0 -119 -179 -305 q-26 9 -35 35q-26 179 -122 296z" />
<glyph unicode="Z" horiz-adv-x="1500" d="M90 46q138 -13 221 -55l56 37l74 18h55h203h55l370 19l55 111l-18 73q16 125 16 231t-16 194l-111 37l-92 -166q6 -37 6 -70q0 -168 -154 -226q-73 -6 -138 -6q-170 0 -287 43q5 204 148 296v74l-74 37q-46 -102 -148 -130q-55 -120 -147 -166q-19 -92 -74 -148 q14 -53 14 -104t-14 -99zM127 1173q-25 -61 -25 -110q0 -105 117 -149q83 156 83 306q0 50 -9 100h148l55 -18q97 20 180 20t152 -20q-92 -115 -92 -240q-138 -37 -166 -166l-74 -37l-18 -129l203 73l-56 37l111 19q5 46 18 74l56 55v55l92 93l37 37l19 37q115 124 147 221 q-134 69 -258 74q-51 -67 -189.5 -67t-364.5 67q-172 -58 -172 -163q0 -19 6 -40q-37 -37 -37 -69t37 -60z" />
<glyph unicode="[" horiz-adv-x="282" />
<glyph unicode="\" horiz-adv-x="318" />
<glyph unicode="]" horiz-adv-x="312" />
<glyph unicode="^" horiz-adv-x="330" />
<glyph unicode="_" horiz-adv-x="490" />
<glyph unicode="`" horiz-adv-x="357" />
<glyph unicode="a" horiz-adv-x="1509" d="M187 134q206 -148 386 -148q169 0 315 130h106l35 -70q136 -4 245 -53l70 88q0 212 -182 212q-14 0 -28 -1l-53 87q40 140 39 269q0 214 -109 398h-52l-123 17l-53 18l-315 17q-229 -125 -229 -240q0 -84 123 -163v-70q-109 -75 -175 -141q14 -96 14 -184t-14 -166z M433 274q41 77 105 105q93 -51 93 -78q0 -30 -117 -30q-35 0 -81 3zM660 379q46 35 71 70q25 -41 25 -63q0 -23 -28 -23q-24 0 -68 16z" />
<glyph unicode="b" horiz-adv-x="1489" d="M33 1323q58 -139 216 -162l18 -90q-1 -17 -1 -34q0 -119 55 -218q-41 -126 -41 -242q0 -138 59 -261q-32 -54 -72 -90q34 -36 33.5 -76.5t-33.5 -85.5l54 -72h54l126 36l107 -18q102 -20 192 -20t168 20q184 278 184 560q0 97 -22 195q-76 108 -90 216q-142 75 -250 75 q-95 0 -164 -57h-161q13 167 90 270q-59 49 -59 108q0 18 5 36q-32 18 -36 36q-126 9 -216 54q-162 -40 -216 -180zM501 658q36 -9 54 -36q89 9 89 82v8q48 -6 94 -6q92 0 176 24q75 -99 75 -195q0 -84 -57 -165q-31 -180 -198 -180q-169 81 -169 224q0 55 25 118 q-56 -18 -75 -18q-10 0 -11 5q0 12 51 49q-54 29 -54 81v9z" />
<glyph unicode="c" horiz-adv-x="1495" d="M45 494q60 -99 69 -207l69 -35l-52 -52q218 -213 466 -213q43 0 86 6q301 98 302 287q0 95 -77 214l-104 -35q5 -27 5 -50q0 -97 -86 -96q-25 0 -57 8q-53 -53 -120 -53q-9 0 -18 1q-230 100 -230 266q0 105 92 235q75 28 135 28q160 0 210 -201h19q216 0 216 150 q0 34 -11 75q-90 277 -434 276h-31q-48 -19 -101 -19q-18 0 -37 2l34 -35l-121 -34q-60 -121 -138 -173l-17 -34z" />
<glyph unicode="d" horiz-adv-x="1509" d="M48 568l34 -51l-17 -51q17 -26 17 -51l34 -17q43 -191 102 -323h51l255 -85q136 71 268 71q96 0 191 -37l85 34q15 34 15 63q0 52 -49 90q-51 51 -125 51h-11l34 85l-34 51q-3 20 -3 40q0 71 37 130q-1 22 -1 43q0 110 18 195l-17 34v136l17 340q-68 68 -85 153 q-183 4 -306 34q-120 -75 -120 -158q0 -63 69 -131q38 -17 51 -51h16q156 0 156 -150q0 -17 -2 -37q-132 21 -204 85q-55 -36 -101.5 -36t-85.5 36q-55 -59 -119 -68q-30 -68 -85 -102q-13 -119 -51 -204zM269 449q64 68 119 102l17 51q31 -5 59 -5q96 0 162 56 q100 -77 100 -112q0 -28 -64 -27q-22 0 -53 3l-17 -51q32 -70 32 -118q0 -109 -166 -109q-39 0 -87 6q-17 35 -17 68q0 46 34 85zM490 466q6 -40 19 -40t32 40h-51z" />
<glyph unicode="e" horiz-adv-x="1509" d="M69 561l52 -69q43 -286 242 -433v-52q95 -17 184 -17q200 0 370 87v51q107 41 107 131q0 74 -72 181q98 88 98 180q0 74 -64 149q-142 329 -484 329q-31 -30 -35 -52q-324 -78 -398 -485zM467 665q-48 18 -48 47q0 42 100 109h12q137 0 196 -87q-105 -120 -178 -120 q-48 0 -82 51zM484 406q23 -2 46 -2q111 0 197 53q89 -22 89 -56q0 -53 -210 -134q-122 13 -122 139z" />
<glyph unicode="f" horiz-adv-x="1509" d="M64 933q44 -133 320 -142l36 -107v-53q-19 -177 -19 -309q0 -24 1 -47h-19q-175 0 -301 -71q9 -107 35 -178l125 -36h71l125 18l391 35l54 72q-76 178 -285 178l18 160q-52 126 -52 213q0 196 266 196h17q-4 28 -4 53q0 166 181 166q33 0 72 -5q19 109 19 186q0 14 -1 27 q-125 196 -320 214h-36h-53q-134 -36 -232 -36q-71 -427 -338 -427q-31 -67 -71 -107z" />
<glyph unicode="g" horiz-adv-x="1522" d="M33 -37q18 -62 18 -124q102 -66 124 -159h142q82 -121 279 -121q166 0 412 85q5 45 18 71h89v195q36 62 36 126q0 78 -54 158q-137 22 -213 88q-47 -15 -87 -15q-86 0 -143 69q24 69 80 69q27 0 62 -16q26 115 106 177q13 98 53 177q70 -23 132 -23q83 0 152 41 q0 155 -35 266q-165 18 -284 71h-36h36h-36q-40 -53 -88 -71q-86 16 -162 16q-313 0 -459 -264v-53q0 -89 18 -142v-89q-37 -199 -37 -337q0 -28 1 -53q-84 -62 -124 -142zM317 17q36 -13 64 -13q79 0 95 101l107 18q36 -12 36 -44q0 -5 -1 -9q46 24 90 24q94 0 176 -113 v-142h-53l-35 18l-213 -35q-89 4 -142 35l-124 -18v178zM423 655v8q0 121 124 151q142 0 160 -124q-71 -71 -142 -106q-35 -11 -62 -11q-73 0 -80 82z" />
<glyph unicode="h" horiz-adv-x="1509" d="M53 112q137 -125 336 -125q79 0 168 20q9 100 35 157l-87 174q-39 -28 -74 -28.5t-65 28.5q7 93 80 93q19 0 42 -6q-86 43 -86 80q0 81 416 128q4 -26 4 -48q0 -111 -108 -125q16 -76 16 -131q0 -132 -97 -132q-11 0 -23 2l-18 -105q83 -43 122 -104q100 15 187 15 t161 -15q30 57 87 70v52l52 69q-39 110 -166 110q-28 0 -60 -5q38 169 38 328q0 220 -73 419q-122 22 -209 70q-55 -36 -116 -36q-11 0 -23 1q-56 -100 -156 -139l-35 -69v11q0 100 69 162q-70 42 -70 94q0 45 53 98q-18 77 -18 144q0 15 1 30q-53 4 -53 61v8l-121 35 q-166 -26 -209 -174l52 -87q78 -17 122 -69v-174l17 -53v-399l18 -53l-18 -226q-148 -26 -191 -156zM610 373v-22q0 -74 17 -74t52 78z" />
<glyph unicode="i" horiz-adv-x="1504" d="M65 260q-11 -52 -11 -98q0 -74 28 -131h49q286 0 474 -49l49 33q68 -4 130 -4q138 0 246 20l65 164l-33 16q-32 78 -81 131q-52 -32 -103 -32q-73 0 -143 65l-65 -17l-16 49v66l16 49v65l-16 33l16 49l-16 327q-58 33 -66 98q132 48 132 131q0 51 -50 114l33 99 q-123 12 -196 65q-181 -128 -181 -290q0 -50 17 -103q-281 -33 -281 -248q0 -22 3 -46q126 -34 236 -34q21 0 42 1l66 -114q-3 -33 -3 -64q0 -108 35 -198q-66 -117 -170 -117q-56 0 -124 35q-37 -45 -82 -65z" />
<glyph unicode="j" horiz-adv-x="1509" d="M91 44q-8 -61 -8 -118q0 -156 61 -287l-35 -35q156 -44 294 -44q205 0 373 97q39 128 39 240q0 30 -3 59q17 30 52 35q-4 198 -52 334q32 173 32 327t-32 288l-18 88q119 167 123 352l-35 -35q-62 149 -211 158q-18 -22 -35 -18q-88 -96 -176 -140q13 -216 176 -264v-53 q-106 34 -189 34q-237 0 -286 -280q42 -9 77.5 -9t63.5 9l281 -18q72 -173 72 -333q0 -27 -2 -53q-26 -50 -26 -94t26 -82q-40 -77 -40 -158q0 -61 23 -124l-70 -17q52 -32 52 -95v-11q-60 -10 -114 -10q-92 0 -167 28q40 53 105 70q-65 110 -87 194q-71 11 -132 11 t-114 -11z" />
<glyph unicode="k" horiz-adv-x="1503" d="M37 52q103 -6 189 -35q15 1 30 1q77 0 142 -35q149 41 241 52q28 -18 34 -35l51 17q126 -16 239 -16q203 0 363 51q0 136 -52 240q-16 -1 -31 -1q-361 0 -450 345q103 80 155 172q186 3 309 68l17 121l-17 17l17 -17l-17 17v34q-125 18 -242 18q-258 0 -480 -86l35 -52 l-86 17l-17 52l-18 137q17 80 17 148.5t-17 126.5l-206 86q-142 -59 -206 -155q16 -154 189 -154h17q6 -34 6 -67q0 -64 -23 -122q21 -50 21 -98q0 -20 -4 -40l-17 -51q26 -149 26 -278t-26 -238q-116 -23 -189 -68v-172zM432 670l17 52q27 -14 27 -26q0 -15 -44 -26z M467 842h68q-32 -46 -49 -46t-19 46zM570 447q95 -70 95 -154q0 -57 -44 -121l-17 69q-88 43 -88 102q0 47 54 104z" />
<glyph unicode="l" horiz-adv-x="1498" d="M59 1267q18 -27 18 -53l123 -18q74 9 140 9t123 -9l18 -70l-18 -70q4 -66 4.5 -119t-4.5 -92v-53l35 -105q-17 -84 -17 -141q11 -84 11 -154t-11 -127q-66 -26 -136.5 -26t-144.5 26q-105 -92 -123 -193q159 -78 308 -78q85 0 166 25q120 -27 227 -27q185 0 335 80 q9 44 9 83.5t-9 74.5q-29 -2 -57 -2q-136 0 -241 37l-106 -35l-17 70q2 24 2 42t-2 29v193v193l17 70v53v70l35 36q0 87 18 140q-13 70 -13 136t13 128q-198 106 -367 106q-19 0 -37 -1q-22 1 -42 1q-258 0 -258 -199q0 -14 1 -30z" />
<glyph unicode="m" horiz-adv-x="1504" d="M37 169q104 -69 155 -121q75 10 143 10q112 0 203 -27q105 17 201 17q193 0 352 -69q86 52 155 69v52q37 61 37 116q0 11 -2 22q-73 69 -121 104q0 86 -17 138q13 93 13 175t-13 153q8 44 8 85q0 113 -60 209h-138h-52q-99 -69 -207 -69q-82 71 -177 71q-15 0 -31 -2 l-52 -69l-51 -17q-147 51 -260 51q-30 -64 -86 -86q52 -125 155 -173q-29 -142 -29 -265q0 -78 12 -149l-34 17zM313 497q24 158 134 158q11 0 22 -2v103q50 -19 50 -64q0 -37 -33 -91q98 0 98 -58q0 -31 -29 -80q1 -14 1 -28q0 -146 -172 -145h-19q-54 76 -54 169 q0 19 2 38zM797 463q-19 46 -19 88q0 82 71 154h52l-17 -35q22 -102 22 -192.5t-22 -170.5q-99 13 -100 92q1 28 13 64z" />
<glyph unicode="n" horiz-adv-x="1495" d="M37 153q153 -133 315 -133q79 0 160 32q8 97 33 169q-115 119 -115 223q0 118 149 217l-67 51q84 5 135 34l17 -51l17 -34l34 -101q106 -47 136 -153q-36 -41 -36 -83q0 -9 2 -18q-77 12 -102 84q-61 -139 -61 -269q0 -52 10 -103q130 -32 257 -32t252 32v50 q10 62 10.5 117t-10.5 104l-136 17q-8 57 -8.5 107.5t8.5 95.5q11 68 10 132q0 234 -146 410l-101 17q-161 -76 -288 -102q-157 94 -272 136q-118 -38 -152 -136v-135q180 -34 180 -150q0 -58 -45 -138q26 -64 26 -118q0 -140 -178 -204z" />
<glyph unicode="o" horiz-adv-x="1495" d="M37 621l52 -69v-52q-38 -74 -38 -159q0 -23 3 -47q155 -138 207 -275q115 -29 215 -29q374 0 541 407l-17 69q7 81 7 155q0 133 -24 240l-52 17q-39 43 -52 86l-34 18l-34 17l-207 103h-103q-94 -47 -155 -103l-120 -52q-56 -81 -120 -120q-5 -138 -69 -206zM243 500 q24 87 24 158q0 35 -6 66l189 34q38 -26 51 -69q29 6 55 6q126 0 169 -143q1 -15 1 -29q0 -187 -208 -212q-11 -31 -27 -31q-29 0 -76 100v-17v17v-17q-105 7 -105 81q0 10 2 22q-47 8 -69 34z" />
<glyph unicode="p" horiz-adv-x="1505" d="M262 838q145 -57 263 -70l-17 -88q17 -26 17 -53v-158l18 -70q-15 -135 -15 -245t15 -195l-53 -35q-236 -135 -236 -225q0 -83 201 -127q66 53 141 53q88 -54 183 -54q14 0 28 1q150 43 150 140q0 54 -45 124q-22 -27 -35 17l-53 71q-39 -45 -63 -45q-43 0 -43 133 q0 16 1 35h53l17 -35h53l53 -36q41 4 79 4q83 0 149 -21q75 97 176 123l18 106q93 172 93 332q0 36 -5 72q-79 477 -308 477q-89 0 -202 -73l-211 -17v53q-181 26 -299 70q-124 -96 -124 -235q0 -14 1 -29zM824 715q22 2 44 2q188 0 291 -143q-5 -101 -18 -175l18 -106 l-71 35q-50 -132 -117 -132q-58 0 -129 97q-119 110 -119 220q0 101 101 202z" />
<glyph unicode="q" horiz-adv-x="1504" d="M69 421q150 -404 466 -404q106 0 232 46q7 -41 7 -76q0 -175 -180 -175q-12 0 -24 1l-18 -54q23 -18 18 -36q108 -89 144 -179h53q14 71 48 71q25 0 60 -35q32 64 84 64q34 0 77 -28q-10 33 -10 62q0 47 28 81q-63 49 -143 54q6 45 6 85q0 82 -24 147q0 90 36 162l18 71 l-36 143q34 127 34 242q0 79 -16 152q26 41 35 108q-94 40 -107 125q-81 -18 -90 -89l-340 143q-82 -56 -165 -56q-16 0 -32 2q-166 -276 -166 -540q0 -44 5 -87zM320 278q-50 102 -50 196q0 165 157 306q15 1 31 1q225 0 381 -252q-62 -102 -62 -209q0 -38 8 -78l-161 18 q-148 -146 -210 -146q-45 0 -45 76q0 23 4 52z" />
<glyph unicode="r" horiz-adv-x="1507" d="M37 107l67 -67q56 6 110 6q162 0 295 -57h51q86 36 163 36q20 0 39 -2q38 84 51 151q-8 42 -8.5 80t8.5 72q-55 -16 -114 -16.5t-122 16.5q-28 100 -28 181q0 263 297 308q17 -156 152 -185q101 84 152 185q-35 54 -35 112q0 11 1 23l-33 17q-156 97 -270 135h-34 q-126 -72 -219 -101q-150 76 -272 76t-217 -76q45 -186 228 -186h8v-67q21 -17 17 -34v-388q-101 -29 -203 -33l-67 -34q0 -85 -17 -152z" />
<glyph unicode="s" horiz-adv-x="1490" d="M138 540q-10 -124 -10 -231q0 -181 28 -314q127 4 228 53q136 -50 264 -50t246 50q119 70 211 105q17 78 17 145q0 267 -263 365q44 26 88 26l88 -26q33 99 33 187q0 141 -86 252q-148 -55 -288.5 -55t-274.5 55q-241 -130 -241 -305q0 -103 83 -222zM367 540 q555 -49 555 -163q0 -52 -116 -118q-38 10 -68 10q-85 0 -108 -81l-17 71q-39 -5 -72 -5q-190 0 -190 173q1 49 16 113zM630 803h14q146 0 180 -105q-43 -6 -77 -6q-122 0 -123 75q0 16 6 36z" />
<glyph unicode="t" horiz-adv-x="1506" d="M37 970q37 -170 201 -170q33 0 71 7l36 -163l-55 -18q0 -90 -18 -145l55 -145v-126l36 -109l109 -90q95 -25 177 -25q244 0 366 224q36 70 36 121q0 114 -181 132q-82 -231 -308 -235v72q-12 64 -12 118t12 99q-12 72 -12 135.5t12 118.5q32 -6 61 -6q76 0 138 42 q44 -10 83 -10q150 0 207 155q-113 68 -163 163q-181 -54 -308 -73l-36 55q42 75 42 131q0 77 -78 122q6 24 6 44q0 90 -115 101q-132 -159 -132 -355q0 -39 5 -79q-34 9 -64 9q-101 0 -171 -100z" />
<glyph unicode="u" horiz-adv-x="1507" d="M41 911l207 -87q9 -61 9 -116q0 -97 -27 -176l52 -35l-52 -17q36 -102 36 -191q0 -63 -18 -119l258 -172q140 42 224 138q160 -110 308 -110q107 0 208 58q-64 100 -69 190l-172 34v52v51q28 15 34 35l18 69v51v52q-2 36 -2 70q0 116 19 205q-20 51 -20 100q0 19 3 38 l-172 69h-18h18h-35h17h-34h17h-34h17h-35h18h-18l35 -34q-10 1 -21 1q-206 0 -220 -294q107 -50 138 -138q9 1 18 1q57 0 85 -35q-70 -85 -70 -181q0 -13 1 -26q-140 -104 -221 -104q-87 0 -106 121q1 262 86 448h17h-17h34h-17h35h-18h18q-96 46 -96 92q0 31 44 63 q-141 44 -270 44q-101 0 -195 -27z" />
<glyph unicode="v" horiz-adv-x="1507" d="M41 860l33 -83q121 -12 183 -66l16 -67q133 -233 133 -467v-14l67 -33l-34 -50q119 -88 242 -88q29 0 57 5q25 129 100 216q-2 26 -2 51q0 171 101 297q-6 49 -6 80q0 58 21 59q13 0 35 -23q12 141 166 183q-4 95 -17 166l-49 33q-17 -21 -34 -17q-32 2 -63 2 q-143 0 -252 -35l-50 33l-33 -33l-33 33q-55 -4 -104 -4q-120 0 -211 21q-229 -12 -266 -199zM472 730l161 141l125 -147l-127 -417z" />
<glyph unicode="w" horiz-adv-x="1498" d="M24 891q148 -160 261 -226v-121q19 -52 19 -103q0 -18 -2 -36q9 -27 0 -53q71 -173 71 -318q0 -15 -1 -29q60 -12 110 -12q227 0 227 259q0 46 -7 100q35 44 70 70q121 -159 121 -334v-14l122 -69q69 56 139 69l17 174l-17 35q27 87 27 160q0 44 -10 83l70 87 q26 178 139 296q-39 104 -52 174q-60 10 -115 10q-141 0 -250 -63v-121q63 -66 63 -147q0 -54 -28 -114q-17 2 -33 2q-47 0 -89 -19q-103 208 -177 208q-88 0 -136 -295l-70 -18q-2 33 -2 65q0 203 72 353q-74 56 -87 139q-100 0 -174 17q-235 -13 -278 -209zM911 596 l87 -18q-42 -109 -64 -109q-23 0 -23 127zM945 387l53 -35q-11 -3 -20 -3q-33 0 -33 38z" />
<glyph unicode="x" horiz-adv-x="1497" d="M75 834q310 -53 496 -266q-22 -132 -142 -177q-66 -143 -206 -143q-12 0 -24 1l-89 -88v-142q110 -25 213 -25q200 0 372 96v18v-18v18h53q111 -80 213 -89l35 -18l36 36q16 -1 31 -1q122 0 217 36q-2 51 -2 95.5t2 81.5q-355 23 -372 337q57 89 88 177q292 74 292 189 q0 67 -97 148q-28 1 -55 1q-242 0 -406 -72l-53 18l-142 35l-212 18q-255 -53 -255 -211q0 -26 7 -55zM624 781l53 53q56 -6 56 -32q0 -16 -20 -39q-18 -14 -36 -14q-27 0 -53 32zM695 196q-5 19 -5 36q0 58 58 88l106 -53q-31 -87 -96 -87q-29 0 -63 16z" />
<glyph unicode="y" horiz-adv-x="1507" d="M41 -72q84 -360 404 -360q36 0 75 5l54 88l71 -17q22 124 71 213q31 240 142 408l-36 54q125 186 125 373h53q60 161 201 161q15 0 30 -2l53 89l-53 124h-18h18h-18l-36 18l-71 18q-26 -18 -53 -18h-53q-191 -4 -320 -35q-166 35 -317 35t-286 -35l17 -196 q147 -4 249 -53l-18 -35q75 -69 75 -154q0 -21 -4 -42q182 -124 195 -337l89 -18q-85 -258 -203 -258q-85 0 -187 134h-107q-53 -107 -142 -160zM538 816l36 -18q89 62 177 71q96 -34 96 -121q0 -95 -113 -252l-71 -18q-7 44 -7 80t7 62q-62 40 -62 98q0 21 8 45z" />
<glyph unicode="z" d="M41 55q82 -69 120 -148l121 37q85 -23 153 -23q28 0 53 4q145 62 280 62q86 0 168 -25l103 93q17 104 17 185q0 197 -103 259q-43 -32 -86 -37v-29q0 -138 -35 -230l-68 37q-92 -40 -170 -40t-140 40q14 59 71 59q15 0 32 -4q4 84 69 111q86 250 292 315v13q0 92 52 135 q-25 233 -231 233q-44 0 -96 -11l-17 -37l-34 18l-35 -18l-52 -19q-142 23 -245 23q-44 0 -81 -4q-88 -161 -88 -318q0 -73 19 -145q58 -26 112 -26q31 0 60 8q30 69 69 111q-6 31 -6 57q0 117 130 116q61 0 151 -25l-17 -56q-91 -101 -121 -203q-133 -83 -172 -185 q-202 -97 -223 -278l-52 -18q13 -19 0 -37z" />
<glyph unicode="{" horiz-adv-x="420" />
<glyph unicode="|" horiz-adv-x="201" />
<glyph unicode="}" horiz-adv-x="360" />
<glyph unicode="~" horiz-adv-x="636" />
<glyph unicode="&#xa1;" horiz-adv-x="309" />
<glyph unicode="&#xa2;" horiz-adv-x="636" />
<glyph unicode="&#xa3;" horiz-adv-x="636" />
<glyph unicode="&#xa4;" horiz-adv-x="420" />
<glyph unicode="&#xa5;" horiz-adv-x="636" />
<glyph unicode="&#xa6;" horiz-adv-x="201" />
<glyph unicode="&#xa7;" horiz-adv-x="420" />
<glyph unicode="&#xa8;" horiz-adv-x="371" />
<glyph unicode="&#xa9;" horiz-adv-x="714" />
<glyph unicode="&#xaa;" horiz-adv-x="402" />
<glyph unicode="&#xab;" horiz-adv-x="540" />
<glyph unicode="&#xac;" horiz-adv-x="1395" />
<glyph unicode="&#xad;" d="M373 563q-14 42 8.5 107.5t86.5 73.5q30 3 67 -5q82 -16 177 -7t239.5 23.5t158.5 -20t-138 -174.5q-31 -4 -73 4t-184 3q-302 10 -205 -7z" />
<glyph unicode="&#xae;" horiz-adv-x="747" />
<glyph unicode="&#xaf;" horiz-adv-x="360" />
<glyph unicode="&#xb0;" horiz-adv-x="285" />
<glyph unicode="&#xb1;" horiz-adv-x="636" />
<glyph unicode="&#xb2;" horiz-adv-x="300" />
<glyph unicode="&#xb3;" horiz-adv-x="300" />
<glyph unicode="&#xb4;" horiz-adv-x="462" />
<glyph unicode="&#xb6;" horiz-adv-x="450" />
<glyph unicode="&#xb7;" horiz-adv-x="207" />
<glyph unicode="&#xb8;" horiz-adv-x="321" />
<glyph unicode="&#xb9;" horiz-adv-x="300" />
<glyph unicode="&#xba;" horiz-adv-x="402" />
<glyph unicode="&#xbb;" horiz-adv-x="540" />
<glyph unicode="&#xbc;" horiz-adv-x="786" />
<glyph unicode="&#xbd;" horiz-adv-x="786" />
<glyph unicode="&#xbe;" horiz-adv-x="786" />
<glyph unicode="&#xbf;" horiz-adv-x="567" />
<glyph unicode="&#xc0;" horiz-adv-x="609" />
<glyph unicode="&#xc1;" horiz-adv-x="609" />
<glyph unicode="&#xc2;" horiz-adv-x="609" />
<glyph unicode="&#xc3;" horiz-adv-x="609" />
<glyph unicode="&#xc4;" horiz-adv-x="609" />
<glyph unicode="&#xc5;" horiz-adv-x="609" />
<glyph unicode="&#xc6;" horiz-adv-x="819" />
<glyph unicode="&#xc7;" horiz-adv-x="729" />
<glyph unicode="&#xc8;" horiz-adv-x="648" />
<glyph unicode="&#xc9;" horiz-adv-x="648" />
<glyph unicode="&#xca;" horiz-adv-x="648" />
<glyph unicode="&#xcb;" horiz-adv-x="648" />
<glyph unicode="&#xcc;" horiz-adv-x="234" />
<glyph unicode="&#xcd;" horiz-adv-x="234" />
<glyph unicode="&#xce;" horiz-adv-x="234" />
<glyph unicode="&#xcf;" horiz-adv-x="234" />
<glyph unicode="&#xd0;" horiz-adv-x="663" />
<glyph unicode="&#xd1;" horiz-adv-x="612" />
<glyph unicode="&#xd2;" horiz-adv-x="696" />
<glyph unicode="&#xd3;" horiz-adv-x="696" />
<glyph unicode="&#xd4;" horiz-adv-x="696" />
<glyph unicode="&#xd5;" horiz-adv-x="696" />
<glyph unicode="&#xd6;" horiz-adv-x="696" />
<glyph unicode="&#xd7;" horiz-adv-x="636" />
<glyph unicode="&#xd8;" horiz-adv-x="696" />
<glyph unicode="&#xd9;" horiz-adv-x="660" />
<glyph unicode="&#xda;" horiz-adv-x="660" />
<glyph unicode="&#xdb;" horiz-adv-x="660" />
<glyph unicode="&#xdc;" horiz-adv-x="660" />
<glyph unicode="&#xdd;" horiz-adv-x="526" />
<glyph unicode="&#xde;" horiz-adv-x="576" />
<glyph unicode="&#xdf;" horiz-adv-x="498" />
<glyph unicode="&#xe0;" horiz-adv-x="369" />
<glyph unicode="&#xe1;" horiz-adv-x="369" />
<glyph unicode="&#xe2;" horiz-adv-x="369" />
<glyph unicode="&#xe3;" horiz-adv-x="369" />
<glyph unicode="&#xe4;" horiz-adv-x="369" />
<glyph unicode="&#xe5;" horiz-adv-x="369" />
<glyph unicode="&#xe6;" horiz-adv-x="747" />
<glyph unicode="&#xe7;" horiz-adv-x="510" />
<glyph unicode="&#xe8;" horiz-adv-x="486" />
<glyph unicode="&#xe9;" horiz-adv-x="486" />
<glyph unicode="&#xea;" horiz-adv-x="486" />
<glyph unicode="&#xeb;" horiz-adv-x="486" />
<glyph unicode="&#xec;" horiz-adv-x="234" />
<glyph unicode="&#xed;" horiz-adv-x="234" />
<glyph unicode="&#xee;" horiz-adv-x="234" />
<glyph unicode="&#xef;" horiz-adv-x="234" />
<glyph unicode="&#xf0;" horiz-adv-x="483" />
<glyph unicode="&#xf1;" horiz-adv-x="384" />
<glyph unicode="&#xf2;" horiz-adv-x="366" />
<glyph unicode="&#xf3;" horiz-adv-x="366" />
<glyph unicode="&#xf4;" horiz-adv-x="366" />
<glyph unicode="&#xf5;" horiz-adv-x="366" />
<glyph unicode="&#xf6;" horiz-adv-x="366" />
<glyph unicode="&#xf7;" horiz-adv-x="636" />
<glyph unicode="&#xf8;" horiz-adv-x="366" />
<glyph unicode="&#xf9;" horiz-adv-x="342" />
<glyph unicode="&#xfa;" horiz-adv-x="342" />
<glyph unicode="&#xfb;" horiz-adv-x="342" />
<glyph unicode="&#xfc;" horiz-adv-x="342" />
<glyph unicode="&#xfd;" horiz-adv-x="393" />
<glyph unicode="&#xfe;" horiz-adv-x="348" />
<glyph unicode="&#xff;" horiz-adv-x="393" />
<glyph unicode="&#x152;" horiz-adv-x="954" />
<glyph unicode="&#x153;" horiz-adv-x="756" />
<glyph unicode="&#x178;" horiz-adv-x="526" />
<glyph unicode="&#x2c6;" horiz-adv-x="360" />
<glyph unicode="&#x2dc;" horiz-adv-x="483" />
<glyph unicode="&#x2000;" horiz-adv-x="827" />
<glyph unicode="&#x2001;" horiz-adv-x="1654" />
<glyph unicode="&#x2002;" horiz-adv-x="827" />
<glyph unicode="&#x2003;" horiz-adv-x="1654" />
<glyph unicode="&#x2004;" horiz-adv-x="551" />
<glyph unicode="&#x2005;" horiz-adv-x="413" />
<glyph unicode="&#x2006;" horiz-adv-x="275" />
<glyph unicode="&#x2007;" horiz-adv-x="275" />
<glyph unicode="&#x2008;" horiz-adv-x="206" />
<glyph unicode="&#x2009;" horiz-adv-x="330" />
<glyph unicode="&#x200a;" horiz-adv-x="91" />
<glyph unicode="&#x2010;" d="M373 563q-14 42 8.5 107.5t86.5 73.5q30 3 67 -5q82 -16 177 -7t239.5 23.5t158.5 -20t-138 -174.5q-31 -4 -73 4t-184 3q-302 10 -205 -7z" />
<glyph unicode="&#x2011;" d="M373 563q-14 42 8.5 107.5t86.5 73.5q30 3 67 -5q82 -16 177 -7t239.5 23.5t158.5 -20t-138 -174.5q-31 -4 -73 4t-184 3q-302 10 -205 -7z" />
<glyph unicode="&#x2012;" d="M373 563q-14 42 8.5 107.5t86.5 73.5q30 3 67 -5q82 -16 177 -7t239.5 23.5t158.5 -20t-138 -174.5q-31 -4 -73 4t-184 3q-302 10 -205 -7z" />
<glyph unicode="&#x2013;" horiz-adv-x="684" />
<glyph unicode="&#x2014;" horiz-adv-x="894" />
<glyph unicode="&#x2018;" horiz-adv-x="1595" d="M657 1371q89 -103 71 -261l-23 -12q80 -139 142 -12q-18 104 0 262h36q3 62 0 154v59q-39 27 -107 48q-122 -74 -119 -238z" />
<glyph unicode="&#x2019;" horiz-adv-x="1595" d="M657 1371q89 -103 71 -261l-23 -12q80 -139 142 -12q-18 104 0 262h36q3 62 0 154v59q-39 27 -107 48q-122 -74 -119 -238z" />
<glyph unicode="&#x201a;" horiz-adv-x="234" />
<glyph unicode="&#x201c;" d="M436 1395q24 -44 12 -83q44 -122 36 -226l11 -47q60 -18 107 -12q0 122 -12 202l36 59q-6 119 12 202q-39 95 -107 119l-83 -24q9 -113 -12 -190zM828 1348h36q18 -158 0 -262q62 -127 142 12l-23 12q-18 158 71 261q3 164 -119 238q-68 -21 -107 -48v-59q-3 -92 0 -154z " />
<glyph unicode="&#x201d;" d="M436 1395q24 -44 12 -83q44 -122 36 -226l11 -47q60 -18 107 -12q0 122 -12 202l36 59q-6 119 12 202q-39 95 -107 119l-83 -24q9 -113 -12 -190zM828 1348h36q18 -158 0 -262q62 -127 142 12l-23 12q-18 158 71 261q3 164 -119 238q-68 -21 -107 -48v-59q-3 -92 0 -154z " />
<glyph unicode="&#x201e;" horiz-adv-x="402" />
<glyph unicode="&#x2022;" horiz-adv-x="387" />
<glyph unicode="&#x2026;" horiz-adv-x="792" />
<glyph unicode="&#x202f;" horiz-adv-x="330" />
<glyph unicode="&#x2039;" horiz-adv-x="321" />
<glyph unicode="&#x203a;" horiz-adv-x="321" />
<glyph unicode="&#x205f;" horiz-adv-x="413" />
<glyph unicode="&#x2122;" horiz-adv-x="681" />
<glyph unicode="&#x25fc;" horiz-adv-x="1100" d="M0 0v1100h1100v-1100h-1100z" />
</font>
</defs>
</svg>
